<?xml version="1.0" standalone="no"?><!DOCTYPE svg PUBLIC "-//W3C//DTD SVG 1.1//EN" "http://www.w3.org/Graphics/SVG/1.1/DTD/svg11.dtd"><svg t="1553844475674" class="icon" style="" viewBox="0 0 1026 1024" version="1.1" xmlns="http://www.w3.org/2000/svg" p-id="2873" xmlns:xlink="http://www.w3.org/1999/xlink" width="200.390625" height="200"><defs><style type="text/css"></style></defs><path d="M513.706667 85.333333" p-id="2874"></path><path d="M931.84 1024l-290.133333 0c-51.2 0-93.866667-64.853333-93.866667-117.76L547.84 641.706667c0-51.2 40.96-93.866667 93.866667-93.866667l290.133333 0c51.2 0 93.866667 40.96 93.866667 93.866667l0 288.426667C1025.706667 981.333333 984.746667 1024 931.84 1024L931.84 1024 931.84 1024zM977.92 645.12c0-25.6-22.186667-47.786667-47.786667-47.786667L645.12 597.333333c-25.6 0-47.786667 20.48-47.786667 47.786667l0 285.013333c0 25.6 22.186667 47.786667 47.786667 47.786667l285.013333 0c25.6 0 47.786667-22.186667 47.786667-47.786667L977.92 645.12 977.92 645.12 977.92 645.12zM931.84 476.16l-290.133333 0c-51.2 0-93.866667-64.853333-93.866667-117.76L547.84 93.866667c0-51.2 40.96-93.866667 93.866667-93.866667l290.133333 0c51.2 0 93.866667 42.666667 93.866667 93.866667l0 288.426667C1025.706667 433.493333 984.746667 476.16 931.84 476.16L931.84 476.16 931.84 476.16zM977.92 97.28c0-25.6-22.186667-47.786667-47.786667-47.786667L645.12 49.493333c-25.6 0-47.786667 22.186667-47.786667 47.786667l0 285.013333c0 25.6 22.186667 47.786667 47.786667 47.786667l285.013333 0c25.6 0 47.786667-20.48 47.786667-47.786667L977.92 97.28 977.92 97.28 977.92 97.28zM384 1024l-290.133333 0c-51.2 0-93.866667-64.853333-93.866667-117.76L0 641.706667c0-51.2 40.96-93.866667 93.866667-93.866667l290.133333 0c51.2 0 93.866667 40.96 93.866667 93.866667l0 288.426667C477.866667 981.333333 436.906667 1024 384 1024L384 1024 384 1024zM430.08 645.12c0-25.6-20.48-47.786667-47.786667-47.786667L97.28 597.333333c-25.6 0-47.786667 20.48-47.786667 47.786667l0 285.013333c0 25.6 22.186667 47.786667 47.786667 47.786667l285.013333 0c25.6 0 47.786667-22.186667 47.786667-47.786667L430.08 645.12 430.08 645.12 430.08 645.12zM384 476.16l-290.133333 0C42.666667 476.16 1.706667 409.6 1.706667 358.4L1.706667 93.866667C1.706667 42.666667 42.666667 0 95.573333 0l290.133333 0c51.2 0 93.866667 42.666667 93.866667 93.866667l0 288.426667C477.866667 433.493333 436.906667 476.16 384 476.16L384 476.16 384 476.16zM430.08 97.28c0-25.6-20.48-47.786667-47.786667-47.786667L97.28 49.493333C69.973333 49.493333 49.493333 69.973333 49.493333 97.28l0 285.013333c0 25.6 22.186667 47.786667 47.786667 47.786667l285.013333 0c25.6 0 47.786667-20.48 47.786667-47.786667L430.08 97.28 430.08 97.28 430.08 97.28zM430.08 97.28" p-id="2875"></path></svg>